<?xml version="1.0" encoding="UTF-8"?>
<svg width="1989px" height="298px" viewBox="0 0 1989 298" version="1.1" xmlns="http://www.w3.org/2000/svg" xmlns:xlink="http://www.w3.org/1999/xlink">
    <!-- Generator: Sketch 47 (45396) - http://www.bohemiancoding.com/sketch -->
    <title>download</title>
    <desc>Created with Sketch.</desc>
    <defs>
        <path d="M2307.1485,372.811464 C2307.1485,193.751629 2938.0796,48.2481753 2382.63293,48.2481753 C2120.71337,48.2481753 1765.12819,52.8998788 1433.82986,33.5537645 C1062.5529,11.8759103 714.148739,-18.0219163 454.631647,14.966578 C-36.4586176,77.3909996 -210.562519,321.475238 344.884157,321.475238 C900.332151,321.473929 2307.1485,551.871299 2307.1485,372.811464 Z" id="path-1"></path>
        <path d="M2326.61143,303.773902 C2736.92354,133.423418 2756.93071,48.2481753 2386.63293,48.2481753 C2124.71337,48.2481753 1769.12819,52.8998788 1437.82986,33.5537645 C1066.5529,11.8759103 718.148739,-18.0219163 458.631647,14.966578 C-32.4586176,77.3909996 -212.304614,303.773902 343.142062,303.773902 C713.440724,303.77303 1374.59718,303.77303 2326.61143,303.773902 Z" id="path-3"></path>
    </defs>
    <g id="Page-1" stroke="none" stroke-width="1" fill="none" fill-rule="evenodd">
        <g id="Group-7" transform="translate(-340.000000, -6.000000)">
            <g id="download">
                <g id="a-link" transform="translate(340.000000, 6.000000)" fill-rule="nonzero" fill="#8ED8F6">
                    <path d="M54.043222,297.433468 C424.341885,297.433468 1069.00003,297.433468 1988.01765,297.433468 L1988.01765,40.5712397 C1615.42468,44.7903324 1318.69541,40.451174 1097.82986,27.5537645 C726.552902,5.87591026 292.972841,-9.6206086 118.631647,8.96657796 C81.1543441,12.9621776 41.6554579,19.1579065 0.134988253,27.5537645 L0.134988253,186.649222 L0.134988253,297.433468 L54.043222,297.433468 Z" id="a"></path>
                </g>
                <g id="Clipped" transform="translate(4.000000, 0.000000)">
                    <mask id="mask-2" fill="white">
                        <use xlink:href="#path-1"></use>
                    </mask>
                    <g id="a"></g>
                    <path d="M336.141478,303.466453 L1482.95527,303.466453 L1482.95527,209.638623 C1396.82418,202.988484 1318.27309,199.663414 1247.30201,199.663414 C691.855335,199.663414 909.515852,-96.703093 909.515852,82.3567421 C909.515852,201.729093 718.391061,275.43233 336.141478,303.466453 Z" id="Shape" fill="#D8F6FF" fill-rule="nonzero" mask="url(#mask-2)" transform="translate(909.548375, 164.164043) scale(-1, 1) translate(-909.548375, -164.164043) "></path>
                </g>
                <g id="Clipped">
                    <mask id="mask-4" fill="white">
                        <use xlink:href="#path-3"></use>
                    </mask>
                    <g id="a"></g>
                    <path d="M591.370535,453.632032 C1146.81853,453.632032 1873.31299,688.882613 1873.31299,509.822778 C1873.31299,330.762943 2637.59447,175.834392 2082.14779,175.834392 C1526.70111,175.834392 1150.4611,-16.5092948 1150.4611,162.55054 C1150.4611,341.609067 35.9238587,453.632032 591.371853,453.632032 L591.370535,453.632032 Z" id="Shape" fill="#57C5F1" fill-rule="nonzero" mask="url(#mask-4)"></path>
                </g>
            </g>
        </g>
    </g>
</svg>