<?xml version="1.0" encoding="UTF-8"?>
<svg width="223px" height="162px" viewBox="0 0 223 162" version="1.1" xmlns="http://www.w3.org/2000/svg" xmlns:xlink="http://www.w3.org/1999/xlink">
    <!-- Generator: Sketch 47 (45396) - http://www.bohemiancoding.com/sketch -->
    <title>Group 3</title>
    <desc>Created with Sketch.</desc>
    <defs></defs>
    <g id="Page-1" stroke="none" stroke-width="1" fill="none" fill-rule="evenodd">
        <g id="Group-3" transform="translate(-6.000000, -14.000000)">
            <g id="Group-2">
                <g id="Group-6">
                    <g id="Group" transform="translate(118.000000, 95.000000) rotate(12.000000) translate(-118.000000, -95.000000) translate(14.000000, 20.000000)">
                        <polygon id="Path-2" fill-opacity="0.415619339" fill="#A1EBFF" points="62.3420244 19.615691 55.3671897 48.7818537 22.5492017 59.3998607 0.471614044 87.5688296 5.61911952 117.577691 31.4068192 145.065478 66.192091 147.159936 85.0516074 134.521207 112.623506 147.159936 133.866648 145.065478 157.142522 112.101904 173.773899 112.101904 201.993637 90.1583733 207.361196 48.7818537 189.786796 25.9271552 162.505369 25.9271552 141.021047 29.8509723 127.20165 3.20763972 101.184214 3.20763972"></polygon>
                        <path d="M154.919273,111.67603 C193.608578,109.505375 210.856955,91.6970939 206.664404,58.2511874 C202.471853,24.8052809 180.589799,15.584537 141.018243,30.5889558 C134.500391,17.2588204 127.2094,8.89565801 119.145271,5.49946855 C113.874713,3.27978546 101.051116,-2.22423471 85.7612376,3.10716402 C75.0308399,6.84872611 66.4833724,14.4224968 61.3654997,23.9287979 C58.6227779,29.0233245 57.4137906,34.9420153 58.0513639,41.1425395 C58.4194845,44.7225844 58.8789044,48.1796652 61.3654997,52.18544 C87.6459725,94.5219072 116.516289,55.538148 145.400291,88.5682349 C152.62047,96.8248171 160.379404,112.185633 150.611331,128.968674 C146.786095,135.541013 141.108554,140.319072 134.075818,143.536199 C123.149848,148.534288 112.094671,150.383 104.8,147.915778 C94.1884998,144.326732 88.4538954,130.758998 91.3261932,119.131048 C95.3397794,102.88281 93.4355989,109.174922 85.6136518,138.007384 C54.4121356,153.105287 30.0579769,149.167173 12.5511756,126.193042 C-13.7090263,91.7318465 17.8561899,57.2652759 30.1228082,52.18544 C38.3005537,48.7988828 48.7147842,47.5212944 61.3654997,48.3526748" id="Path-4" stroke="#57C5F1" stroke-width="12"></path>
                    </g>
                    <text id="STRATUS-SPHERE" font-family="AvenirNext-DemiBold, Avenir Next" font-size="14" font-weight="500" letter-spacing="5.15333366" fill="#000000">
                        <tspan x="28.4736644" y="104">STRATUS SPHERE</tspan>
                    </text>
                </g>
            </g>
        </g>
    </g>
</svg>