<?xml version="1.0" encoding="UTF-8"?>
<svg width="379px" height="379px" viewBox="0 0 379 379" version="1.1" xmlns="http://www.w3.org/2000/svg" xmlns:xlink="http://www.w3.org/1999/xlink">
    <!-- Generator: Sketch 47 (45396) - http://www.bohemiancoding.com/sketch -->
    <title>Group 3</title>
    <desc>Created with Sketch.</desc>
    <defs></defs>
    <g id="Page-1" stroke="none" stroke-width="1" fill="none" fill-rule="evenodd">
        <g id="Group-3">
            <g id="Group-2">
                <rect id="Rectangle" stroke="#2240A9" stroke-width="7" x="3.5" y="3.5" width="372" height="372" rx="186"></rect>
                <g id="Group-6" transform="translate(56.000000, 33.000000)">
                    <g id="Group" transform="translate(132.871831, 115.026672) rotate(14.000000) translate(-132.871831, -115.026672) translate(18.371831, 25.026672)">
                        <path d="M64.9637089,24.2961833 L61.7703838,54.6367626 L16.2202472,69.2081389 L0.211827434,102.342048 L8.25741435,134.611135 L22.1246055,149.702521 L58.5225138,159.928604 L86.296061,153.003881 C88.418137,161.58714 91.2650367,167.526402 94.8367599,170.821668 C98.4084831,174.116934 105.31301,177.17432 115.55034,179.993828 C125.849791,180.082854 133.291217,179.208743 137.874619,177.371495 C142.458022,175.534248 149.689975,170.526564 159.570479,162.348443 L170.802521,134.514901 L190.73867,134.514901 L224.565869,108.094868 L226.407428,60.980751 L206.396877,34.9011922 L177.231004,30.7604144 L151.477596,35.4846943 L126.961976,8.25997103 L103.72411,1.2 C93.4794712,1.58422043 85.5097442,2.9844692 79.8149292,5.4007463 C74.1201141,7.8170234 69.1697073,14.1155024 64.9637089,24.2961833 Z" id="Path-2" fill-opacity="0.415619339" fill="#C9D5FF"></path>
                        <path d="M167.722519,133.51752 C212.822175,132.509689 232.865154,112.002179 227.851455,71.9949928 C225.658099,54.4929403 215.133218,41.2625917 204.25655,35.3778111 C187.779155,26.4627772 170.059922,26.8445462 151.098852,36.5231179 C143.304422,20.5779314 134.585428,10.5741183 124.941868,6.51167835 C118.639026,3.85654698 106.107349,-3.9275146 87.8228157,2.44977598 C74.9907765,6.92534231 67.7726808,13.5679247 62.4667254,30.3586463 C58.2249946,43.7816238 61.5682747,53.3205923 64.6319939,58.0817269 C91.298752,99.5228702 121.797978,66.3667398 156.339162,105.876533 C164.973475,115.752858 174.252064,134.127095 162.570829,154.202564 C157.996388,162.064238 152.097955,169.891266 143.725461,173.798915 C130.807521,179.828035 122.985687,181.110793 108.545019,177.067841 C102.078573,175.257431 91.9041151,169.124131 89.0272741,162.833907 C86.1223634,156.482308 89.1276293,148.892295 90.8533984,141.903995 C95.6530802,122.468244 94.2444556,127.383807 86.6275245,156.650682 C44.7924494,165.138732 18.0376174,155.327924 6.36302847,127.21826 C2.11385301,116.987245 2.2132753,96.8208477 6.45544412,87.2320718 C10.9032837,77.1784085 26.8973595,55.3816318 64.6319939,58.0817269" id="Path-4" stroke="#2240A9" stroke-width="7.2"></path>
                    </g>
                    <text id="STRATUS-SPHERE" font-family="AvenirNext-DemiBold, Avenir Next" font-size="18" font-weight="500" letter-spacing="6.62571383" fill="#2240A9">
                        <tspan x="13" y="262">STRATUS SPHERE</tspan>
                    </text>
                </g>
            </g>
        </g>
    </g>
</svg>